<svg version="1.2" xmlns="http://www.w3.org/2000/svg" viewBox="0 0 1773 2500" width="1773" height="2500">
	<title>css-3-seeklogo</title>
	<style>
		.s0 { fill: #264de4 } 
		.s1 { fill: #2965f1 } 
		.s2 { fill: #ebebeb } 
		.s3 { fill: #000000 } 
		.s4 { fill: #ffffff } 
	</style>
	<g id="Layer 1">
		<path id="&lt;Path&gt;" class="s0" d="m885.4 2493.7l-721.5-200.3-160.7-1803.3h1766.6l-160.9 1803-723.5 200.6z"/>
		<path id="&lt;Path&gt;" class="s1" d="m1471.1 2178.3l-584.6 162.1v-1702.9h722.1l-137.5 1540.8z"/>
		<path id="&lt;Compound Path&gt;" class="s2" d="m886.5 1306.3v221.2h-494.9l-19.9-221.2zm-554.5-447.6h554.5v221.2h-534.4l-20.1-221.2zm554.5 1252.2l-1 0.2-453-125.7-31-347.3h222l15.8 176.4 246.3 66.5 0.9-0.3z"/>
		<path id="&lt;Compound Path&gt;" class="s3" d="m418.9 0h267.9v112h-155.8v112h155.8v112.1h-267.9zm321.5 0h267.9v97.4h-155.9v19.5h155.9v224h-267.9v-102.3h155.8v-19.5h-155.8v-219.1zm321.4 0h267.9v97.4h-155.8v19.5h155.8v224h-267.9v-102.3h155.9v-19.5h-155.9v-219.1z"/>
		<path id="&lt;Path&gt;" class="s4" d="m1399.8 1306.3l-5.3 59.4-52 582.3-3.4 37.4-453.4 125.6v-230.1l246.7-66.5 25.7-286.9h-272.4v-221.2h291.6l20.1-226.4h-311.7v-221.2h554.1l-40 447.6z"/>
	</g>
</svg>