<svg id="Layer_1" data-name="Layer 1" xmlns="http://www.w3.org/2000/svg" viewBox="0 0 195.16 55.01"><defs><style>.cls-1{fill:#ff7613;}</style></defs><polygon class="cls-1" points="129.08 0.65 125.97 7.93 174.33 28.61 126.05 47.64 128.95 55.01 195.16 28.91 129.08 0.65"/><path class="cls-1" d="M348.36,177h0c4.57-5.53,5.47-11.84,2.7-18.75-2.67-6.69-7.87-10.37-15-10.67-5-.2-10.09-.2-15-.2h-4.61v8.77h2c4.6,0,10.66.11,16.73.27a7.35,7.35,0,0,1,5.51,2.13,9.43,9.43,0,0,1,2.31,9.25c-.84,3.35-4,5.61-8,5.76-1,0-2.1,0-3.26,0l-4.22,0,17,28.36h2.13l7.5,0L341.44,181.4A12.66,12.66,0,0,0,348.36,177Z" transform="translate(-235.64 -147.34)"/><polygon class="cls-1" points="47.28 32.17 47.2 17.19 69.19 7.93 66.08 0.65 0 28.91 66.21 55.01 69.11 47.64 20.83 28.61 39.28 20.58 39.37 29.83 47.28 32.17"/></svg>